<svg xmlns="http://www.w3.org/2000/svg" viewBox="0 0 138.51 154.79"><g><path d="M34 98.24c-1.57.54-11.73 8.65-14.59 11.63-1.6 2.33-.41 3.78 1.59 2.13 4.46-4 12.89-11.66 16.65-12.5 7.89-2.5 14.26-3.5 19.7 2.92 1.41 1.34 2.68 3.81 3.89 8.24.6 2.29 2.24 10.07 2.64 12s1.21 6.92 2.22 9.2 2 5 4 6.51 10.17 2.81 11.44.24c1-2.22 2.25-2.75 3.33-2.52s1.61 1.55 1.61 1.55c-.29.26-2.61 2.35-2.19 2.8s2.27-1.52 3.71-1.2c.91.25 1.46 1.77-.17 2-1.63.34-1.48-.13-2.81.16s-.22 1.38 1.56 1.86c1.29.38.7 1.52-.06 1.74-.52.1-2.81-.36-3.22.37s2 1 2.32 1.18c.88.39.18 1.28-.68 1.44s-1-.59-3-.2c-.76.11-1.22.79-.08 1.38s1.42 1.87.64 2.09c-.7.07-1.82 0-2.64.1-3.2.79-13.42.68-16.85-1.6-1.13-.79-1.74-3-2.77-6.08a32.06 32.06 0 0 0-6.5-10.51c-3.44-3.81-7.2-4.8-9-10.59-.38-1.16.34-8.6.34-8.6-.33-.86-1-1.26-2.2.15-1.48 4.73-4.48 12.92-8.78 15.5C11.61 142.77 11.76 93.47 17.11 83a2.26 2.26 0 0 1 2.74-1.44c1.83.13 4.24.59 5.58.67a33.94 33.94 0 0 0 6.34 0c1.27-.23 5.15-.3 6.23.24a5.66 5.66 0 0 0 4.9-.72c.85-.52.36-2.35.36-2.35 1.54.17 4.68-1 4-3.65a1.81 1.81 0 0 0 1.2-1.91c0-1.74-1.06-1.36-.54-3.56.82-2.27.5-3-.74-3.77a14.93 14.93 0 0 0-4.08-2.27 14.53 14.53 0 0 0-9.09.18 11.83 11.83 0 0 0-3.54 1.91c-1 .84-3.77 1-4.13.65-1.61-1.98 2.02-3.98 2.51-5.23 2.39-5.31-4.57 1.12-7.52 2-7.28-4-4.7-5.16-8.34-5.7a3 3 0 0 0-2.14.76.5.5 0 0 0 0 .76c1.14.85 4.18 2.32 4.54 2.67.42.51 3 3 3.86 3.85A9.3 9.3 0 0 0 24 69.06a15.4 15.4 0 0 0 5.48 0c1.37-.38 3.82-2.58 5.36-2.76s2-.2 3.31-.43a10.1 10.1 0 0 1 4.14.28 14.06 14.06 0 0 1 3.45 1.67 2.34 2.34 0 0 1 .73 1v.36a3.76 3.76 0 0 1-.23.73c-.75 1.33-2.31-.62-3.25-1.07-.67-.33-2.83-.8-2.81-.19s-.76 1 1.26 1.35a10.55 10.55 0 0 1 3.86 1.81c.88.54 1.15.9 1.21 1.57v.3a1 1 0 0 1-.2.52c-.75 1-1.47.18-2.41-.47s-3.51-1.77-4.32-1.55c-.87.06-1.38 0-1.37.69s1.29.85 2.78 1.22a8.44 8.44 0 0 1 2.57 1c.47.19 2.54 1.22 1.43 2.16s-1.23 0-3.54-.55c-1-.23-2.92-.6-3.69-.74a3.62 3.62 0 0 0-2.35-.16c-.76.37-.65.78-.13 1.28s1.13.08 2 .27a9.18 9.18 0 0 1 2.82 1c.68.5 2.07.78 1.41 1.51s-.75.62-2.24.19a18.09 18.09 0 0 0-3.45-.59c-1.77-.17-5 1.28-7.56-.11-2-.46-6.57.39-8.11.16s-6.48-2-7.36-2.86-5.91-3.76-7.43-8.33-1.7-6.67-.36-8.43 4-3.61 7.62-5.27 4.64-2.34 6.28-2.63 2.53-2 3.11-2.92 1.56-3.66 3.85-4.36c1.63-.45 2.89-.57 4.12-1C32 43.2 31 45.21 31 45.21c-.45 3.68.82 8.21 3.46 9.89a8.94 8.94 0 0 1 4 3.29c1.58 2.32 2.36 3.07 3.14 3.52A19.52 19.52 0 0 0 47.54 64c1.19 0 3.05-.88 6.38-.74s3 1 4.82 1.33c1.49.44 4.29.12 6.19.14a4.17 4.17 0 0 1 3.82 2c.64 1.27.1 5.1-.24 6.08s-1.17.89-2.17 1.53-.16 2.2-.14 3.06c.11 6 1.7 11.57-1.34 17.45-.74 1.45-4.06 3.76-6 3.81-1.23 0-1.13-.24-4-2.22-4.72-3.23-14.55-1.7-20.92 1.74M89 135.3c4 .69.9 7.45-.32 9.57-1.39 2.32-2.33 4.07-2.31 4.89 0 2.1 9.59 1.56 11.62 1.16 5-1 8-3.58 12.36-7.86a40.08 40.08 0 0 0 10.6-14c2.55-5.36 4-10.46 5.63-15.13 4.65-13.17 3.84-22.46 4.72-35 .42-7-1.84-12.69-9.7-12.55-3.93.09-7 2.14-8.92 3.56-7.18 3.77-12.3 6.12-20.74 5.47-1.07-.08-2 1.17-1.94 2.34s1.92 4 3.27 5.25c2.05 1.95 5.93 5 11 5a9.42 9.42 0 0 0 2.86-5.12c.67-2.67 1.21-5.84 3.16-6s.84 3.77-1.34 9.79-7 4.18-10.06 3.11a33.33 33.33 0 0 1-4.61-3.22c-.84-.75-4.64-4.1-5.05-4.45s-1.23-1-1.23-1c-.3-7.14-3-6.07-3.94-8.3-.3-1.58-.89-3.29-1.88-4.1-.87-.54-2.34-1.48-3.16-2.08s-1.94-.37-1.67.13 2.34 2.52 2 3.24c-.45.68-.69 1.65-1.37 1s-1.89-2.31-2.6-2-1.35 1-1 1.75 1.43 2.17 1 2.69-1.62.65-2 0-1.15-1.51-1.8-1c-.76.77-1.5 1.92-.41 3 .72.39 1.67 1.44 1.12 2-.66.32-2-1.24-2.37-1.33a1 1 0 0 0-1.41.94c-.17 1.7 1.8 3.3 2.89 4.34 1.75 1.34.47 3.25 5.68 5.61.77.48 4.76 5.42 5.71 6.67 1.73 2.47 3.51 4.63 8.46 6.68 5.77 2.75 3.75 4 11.73 6.82 4 1.3 4.48 1.33 6.61.22s7.31-7.3 9-10.85c.59-1.2 4.44-10.78 5.52-13.3 1.33-2 2.26-1.58 2.54-.51.4 0 .15 2.76-1.88 8.36-2.36 7.11-6.48 11-9.75 15.37-3 4.09-5.51 5.74-12.86 3.17 0 0-2 .34-1.26 1.41a68.22 68.22 0 0 0 4.72 6c3.24 3.86 7.61 15.67 4.61 15.38-2.41-.25-2.85-6.43-4.74-9.15 0 0-6.94-9.88-9.52-13.6a20.93 20.93 0 0 0-10.89-8c-3.24-1.07-7.9 3-10.76 5.93s-4 5.71-4.32 11.18c-.22 1.94-2.83 9.3.92 15.66 4.66 7.84 15.28-4.95 10.44-14.86-.34-3.93 2.39-.15 2.92.71 1.17 1.87 2.13 4.4 2 5.94-1.55 6.51-4.38 7.94 2.72 9.07zm2.09 18.4c9.61-.18 16.57-2.26 24.65-11.47 9.79-11.13 11.27-19.18 12.62-23.5 4.86-14.51 10.76-34.09 5.31-48.54a11.06 11.06 0 0 0-5.26-5.87 10.56 10.56 0 0 1-3.48-2.54 9.08 9.08 0 0 0 2.71-3c1.23-2.17 5.13-8.53 5-10.2-.44-6.33 0-2.46 3.41-10.86a29.72 29.72 0 0 0 2.49-10.88v-2.45C138 17 133.85 10.72 125.1 7.63a30.53 30.53 0 0 0-17.39-1.25c-5.45 1.19-14.95 8.68-15.1 8.84 0 0-2-7.57-4.84-9.92C82.1 1 66.29-2.8 56.45 2.86c-8.25 4.5-11.7 13.46-16 21.14-1.22 2.38-5.67 7.07-7.09 10.26-4.09 9.89-1.07 2.42-10.22 8-2.63 1.48-4.83 6.33-8.74 7.27S2.19 56.87.61 59.41A6.33 6.33 0 0 0 0 62.59v.76A17 17 0 0 0 5.62 75.3c5.62 4.89 5 4.9 6.92 5.78.66.24-8.38 43.91 5.72 51.8 1.56.88 7.1 2.31 11.06 3.86 2.93 1.16 5.93 5.46 12.15 6.81 9 2 14.81 8 20.68 9.86 2.52.71 18 1.93 20.46 1.07 2.98-1.38 4.13-.69 8.46-.78zm5.46-80.52c2 .73 8-.78 11.06-3.13s10.8-9.26 10.8-9.26 0-.51 1.79-.35a9.48 9.48 0 0 0 5.67-2.76c3.2-3.85 4.08-10.4 2.2-10.05a17.93 17.93 0 0 0-5.16 2.81c-.74.67-2 2-2 2s-.52-.86.41-2.77c1.57-3.24 6.61-4.11 8-6.8 3-5.37 7.43-19.1 3-24.44-6-7.08-17.92-12.52-28.6-6.93-6.73 3.45-10 7-14.37 12.09-5.84 6.91-11.56 11.88-10.56 23.82.21 2.86 1 2.95.47 5.92-.08.72-1.83 2.7-1.91 4.17s.19 4.54 1.3 5.8a14.38 14.38 0 0 0 2.91 2.24c1.07.74 1.26 1.85 1.92 2 1 .13 2.19-.41 3 0a3.62 3.62 0 0 0 2.65.46c2.7-.41 3.41-3.69 4.3-2.08a1.8 1.8 0 0 1-.56 1.9c-.81.68-3.38 2.07-4.57 1.87s-1.74-.47-2.4-.45a.79.79 0 0 0-.74 1.23c.42.65 1 2.28 2.5 2.61 2.89.42 6.75-.63 8.87.1zm-34.28 29a2.36 2.36 0 0 0-.55 2.66s1.44 3.35 1.93 4.78c.27.86.88 3 1.26 4.72s1.56 1.5 1.56 1.5c2.54-3.22 4-9 5.47-10.32 1.59-2.07 7.5-5.87 9-6.67 1.76-1-1.58-4.87-4.66-5.33-5.28-.72-9.66 4.88-14.03 8.7zm12.87-63.67c1.38-5.14 4.2-9.64 7.28-13.89 2.48-3.47 4.73-6.27 5.41-8.44.65-2.31-.49-3.92-2.53-6S71.24 2.31 64.73 3.62a25.29 25.29 0 0 0-14.47 9.54C46.34 18.9 45 26.74 39.59 31.4A24.21 24.21 0 0 0 35 39.46c-1.25 3.7-1.8 6.88-.71 10.8a7.85 7.85 0 0 0 3.15 3.66c1.09.85 2.53 1.44 3 2.45.59 1 .77 2.7 2 3.43a10.71 10.71 0 0 0 4.94 1.9 14 14 0 0 0 4.2-.24 10.43 10.43 0 0 1 4.79 0c1.75.78 2.84 1.58 6.05 1.31 3.06-.37 4.78-1 6.63-3.71 2.88-4.29 3.56-11.91 6.09-20.55zm-29.56 91.43c-.66 0-3.36.12-3.07-3 0 0-.64-1.52-2.25 0-2 2-5.56 5.42-6 6.45-.58 1.4-1.12 2.68-.19 3.68.37.35 5.86 3.76 8.05 3.63 2 0 .32-6.85.21-7.61-.2-4.29 2.82.35 2.82.35a2.08 2.08 0 0 0 3.22-2c-.07-1.24-1.05-1.59-2.79-1.5zm-.5 6c-.12 1.17 0 1.73.91 1.82s2-.36 2.13-.91a1.22 1.22 0 0 0-1.12-1.63 4.85 4.85 0 0 0-1.92.71zm.17 3.37c-.2.61.07.86.53.86 0 0 1.27-.14.8-.74-.25-.43-.8-.15-1.32-.13zm-.25 1.43c.67.59-.58 1.23.44 1.21s1.66-.9.89-1.14c-.33.01-.53-.04-1.33-.07zm-2.53-87.69c-.91.13-1.16.79-.89 1.41 1.13 2.63 2.54 4.29 3.36 4.63.93.55 5.32.66 6.17-.17s.24-1.08-.38-1.32c-2.65.05-3.27.37-5-.41s-1.82-1.41-3.26-4.14zM44 40.82c-3.61-1.88-3.54-.8-1.52.9 1.51 1.2 4.6 2.36 4.6 3l-.17 1.59c-1.3 3.8-.88 2.21-1.43 4.92.7 2.09 1.2 1.21 2.31-1.78 1.69-5.2 3-2.36 4.44-8.06a30.09 30.09 0 0 0-2.81-2.59 18 18 0 0 0-3.28-3.05c-2.58-1.43-.06 1.94 0 2a21.83 21.83 0 0 0 2.36 2.56 1 1 0 0 1 0 1.27c-.83.85-3.4-.43-4.5-.76zm8.81 11.27c-1.54 1.77-2.56 1.58-4 1.86l-.51.63.65.9a5.43 5.43 0 0 0 3.3-.62c.86-.79 1.7-1.57 2.5-2.4L55.92 51l1.25-1c.1 0 2.89 1.17 5 1.74 2.57.57 3.48 0-.59-1.88-1-.43-2.5-2.35-2.36-2.61a1.18 1.18 0 0 1 1.11-.74c8 1.22 7.86-.92 1-1.55-2.26-.21-1.53-.37-3.69-.59-2.21 2.35-2.87 5.37-4.87 7.72zm29.75.32c-1.44-.12-1.55-1.14-2.16-.37s.65 2 1.62 2.12c2.05.11.1 2.25-.53 3.69A14.75 14.75 0 0 0 80 61.92a3.65 3.65 0 0 0 3.19 1.57c1.39 0 2.45-.41 1.87-.91-1.24-.84-2.55-.3-2.94-1.46-.49-1.58 1.37-2.95 2-3.93a14.74 14.74 0 0 0 1.17-5.33c0-.56-.67-.4-.67-.4-1.34 1.04-1.4.94-2.1.94zM94 53.56c-.5.51-1.55 1.25-1.71 1.51-.24.52.33 1.32 1.27 2 .72.6 2 .94 4.11 1l.77.59a2.57 2.57 0 0 1-2.52.92 17.16 17.16 0 0 1-3.9-.74 3.45 3.45 0 0 1-2.46-2.75c-.08-1.29 2-3.32 2-3.32s3.63-.46 2.44.79z" fill="#1d1d1b" fill-rule="evenodd"/></g></svg>